<?xml version="1.0" standalone="no"?>
<!DOCTYPE svg PUBLIC "-//W3C//DTD SVG 20010904//EN"
 "http://www.w3.org/TR/2001/REC-SVG-20010904/DTD/svg10.dtd">
<svg version="1.0" xmlns="http://www.w3.org/2000/svg"
 width="2362.000000pt" height="2362.000000pt" viewBox="0 0 2362.000000 2362.000000"
 preserveAspectRatio="xMidYMid meet">

<g transform="translate(0.000000,2362.000000) scale(0.100000,-0.100000)"
fill="#000000" stroke="none">
<path d="M18400 20464 c-657 -117 -1323 -236 -1480 -264 -157 -28 -733 -130
-1280 -226 -1006 -177 -1646 -290 -3335 -590 -511 -91 -2383 -421 -4160 -735
-1963 -346 -3232 -574 -3237 -582 -4 -6 -8 -16 -8 -20 0 -4 76 -437 170 -962
l170 -953 0 -4806 0 -4806 6763 0 c3719 0 7060 -3 7424 -7 530 -5 677 -4 733
7 l70 13 2 4791 c2 2635 1 4801 -1 4814 l-3 22 -7162 1 c-3938 0 -7156 2
-7151 5 12 4 312 57 6275 1109 2544 448 5344 942 6224 1097 1242 219 1600 286
1604 297 6 15 -29 230 -247 1525 -84 497 -81 487 -145 485 -17 -1 -569 -97
-1226 -215z m-507 -463 c1554 -562 1958 -709 1962 -712 3 -4 89 -497 97 -558
l3 -25 -750 -132 -750 -132 -125 45 c-174 62 -682 246 -815 295 -60 22 -688
249 -1395 505 -707 255 -1288 467 -1292 471 -8 8 2407 439 2470 441 33 1 175
-46 595 -198z m-3733 -877 c525 -190 1142 -413 1370 -495 228 -83 546 -198
705 -255 160 -58 353 -128 430 -156 129 -47 176 -68 148 -68 -6 0 -561 -97
-1234 -216 -673 -118 -1237 -216 -1254 -216 -16 0 -147 43 -290 95 -143 52
-424 154 -625 227 -201 72 -493 178 -650 235 -1048 380 -1318 478 -1672 606
-219 79 -398 146 -398 149 0 7 2434 438 2480 439 23 1 369 -120 990 -345z
m-5073 -405 c32 -11 81 -29 108 -39 28 -10 181 -66 340 -124 303 -109 406
-146 2093 -757 782 -283 1027 -375 1010 -381 -13 -4 -577 -105 -1255 -224
l-1232 -216 -553 200 c-681 247 -2172 787 -2678 969 -206 74 -382 139 -390
143 -10 6 -5 10 20 15 162 30 2449 433 2462 434 10 1 43 -8 75 -20z m3672
-2623 c-4 -3 -238 -139 -1034 -598 -598 -346 -1200 -693 -1520 -878 -159 -92
-300 -172 -312 -179 -19 -10 -30 -5 -87 34 -353 247 -835 197 -1541 -160 -132
-67 -270 -141 -307 -163 l-68 -42 -555 2 -555 3 847 489 c872 503 1392 804
1873 1081 151 87 374 216 495 287 l220 128 1274 0 c701 0 1272 -2 1270 -4z
m4211 0 c0 -2 -51 -33 -112 -69 -62 -36 -241 -139 -398 -229 -157 -91 -343
-199 -415 -240 -71 -41 -366 -211 -655 -378 -735 -425 -1238 -715 -1570 -906
l-285 -164 -1270 2 -1270 3 190 109 c105 60 327 189 495 286 168 97 429 248
580 335 524 302 658 379 1235 713 319 184 661 382 760 439 l180 103 1268 0
c697 0 1267 -2 1267 -4z m3200 -286 l0 -289 -67 -39 c-38 -21 -243 -140 -458
-264 -214 -124 -579 -334 -810 -468 -231 -133 -510 -294 -619 -358 -181 -105
-201 -114 -220 -101 -354 226 -784 332 -1211 299 -392 -30 -745 -173 -1014
-409 l-80 -71 -253 2 -253 3 175 101 c96 55 571 330 1055 609 484 280 979 565
1100 635 121 70 353 203 515 297 162 94 362 210 445 257 l150 86 772 0 773 0
0 -290z m-10633 -1310 c142 -39 253 -109 369 -233 44 -47 99 -97 124 -112 112
-70 221 -203 273 -336 57 -142 77 -418 44 -587 -37 -183 -163 -497 -304 -757
-68 -124 -312 -495 -436 -664 -115 -156 -393 -496 -515 -628 -274 -298 -829
-765 -1322 -1113 -96 -68 -185 -130 -197 -139 -30 -21 -29 -35 5 -50 52 -24
208 -120 337 -210 72 -49 243 -165 380 -258 138 -93 336 -232 440 -310 230
-170 365 -255 640 -403 593 -320 1096 -531 1525 -641 177 -46 313 -71 685
-128 239 -37 746 -38 990 -1 418 62 891 222 1185 401 114 69 159 89 192 82 29
-6 83 -59 135 -135 23 -34 51 -58 106 -87 90 -50 117 -78 124 -128 4 -29 0
-44 -16 -64 -23 -29 -191 -134 -317 -197 -348 -174 -851 -316 -1258 -353 -187
-18 -694 -6 -881 20 -536 75 -831 146 -1225 299 -267 103 -616 257 -785 347
-588 313 -647 349 -956 576 -171 127 -391 279 -854 590 -126 84 -234 147 -360
209 -214 104 -316 141 -410 148 -91 6 -134 30 -186 104 -23 33 -43 57 -46 55
-5 -5 30 -273 47 -367 29 -153 120 -674 129 -740 6 -41 20 -131 31 -200 11
-69 34 -217 50 -330 17 -113 39 -259 49 -325 21 -142 16 -175 -34 -224 -33
-33 -40 -36 -90 -34 -29 1 -69 9 -87 19 -67 34 -266 189 -358 278 -52 51 -125
116 -161 144 -85 66 -186 174 -275 292 -133 177 -186 288 -294 609 -87 261
-113 361 -150 586 -56 340 -70 635 -51 1095 20 484 48 658 165 1012 84 254
124 354 208 523 119 237 155 295 362 580 203 280 247 334 418 515 208 222 470
449 701 608 491 340 916 548 1328 651 172 43 393 48 526 11z m7583 -1 c336
-31 648 -142 875 -310 28 -21 88 -59 135 -84 302 -167 490 -397 537 -659 26
-145 -3 -331 -72 -472 -71 -145 -244 -279 -334 -259 -17 3 -64 38 -109 79 -59
55 -93 78 -133 91 -111 36 -159 72 -159 117 0 42 14 63 63 92 25 14 67 50 95
81 41 45 57 73 79 138 23 72 27 98 27 217 1 125 -1 140 -26 198 -35 83 -107
190 -161 239 -50 46 -169 89 -350 125 -148 30 -449 32 -597 5 -266 -50 -506
-172 -695 -355 -231 -221 -367 -553 -352 -852 7 -133 25 -200 87 -325 64 -129
129 -216 259 -343 136 -133 312 -267 652 -493 797 -530 1150 -799 1434 -1090
332 -341 519 -624 624 -945 63 -193 76 -286 75 -529 0 -176 -4 -226 -22 -307
-54 -246 -162 -481 -313 -684 -244 -326 -586 -569 -981 -698 -646 -211 -1258
-142 -1764 196 -61 41 -149 96 -195 123 -158 91 -281 185 -409 314 -186 188
-273 328 -354 573 -74 225 -91 331 -91 558 0 218 11 290 72 464 129 372 362
630 773 856 196 108 225 109 330 9 69 -65 103 -86 190 -114 63 -21 110 -63
110 -98 0 -41 -35 -73 -148 -132 -279 -149 -456 -297 -577 -485 -232 -358
-273 -741 -130 -1200 64 -203 173 -380 332 -536 101 -99 180 -142 364 -198
377 -113 830 -77 1244 99 523 223 916 695 1011 1217 23 125 24 390 1 513 -72
396 -273 731 -683 1139 -246 245 -594 506 -1310 984 -392 261 -559 387 -721
545 -285 278 -403 521 -403 830 0 356 167 724 438 965 342 304 797 446 1282
401z m-9336 -458 c-5 -4 -63 -45 -130 -89 -66 -45 -156 -109 -200 -143 l-79
-61 -840 6 c-997 8 -1170 14 -1208 39 -27 17 -27 18 -27 137 l0 120 1247 0
c690 0 1243 -4 1237 -9z m7846 4 c0 -3 -19 -29 -42 -58 -37 -44 -91 -125 -145
-214 l-13 -23 -2499 0 -2499 0 -22 64 c-12 36 -43 102 -71 147 -27 45 -49 84
-49 86 0 1 1202 3 2670 3 1469 0 2670 -2 2670 -5z m4538 -127 l-3 -133 -30
-15 c-26 -13 -131 -15 -751 -18 l-722 -3 -67 86 c-36 47 -98 113 -138 146 -40
34 -74 63 -76 65 -2 2 399 4 893 4 l897 0 -3 -132z m-2584 87 c131 -24 247
-63 279 -93 28 -27 92 -117 103 -146 6 -15 -64 -16 -740 -16 -449 0 -746 4
-746 9 0 14 122 92 215 139 132 65 269 105 435 126 76 9 368 -3 454 -19z
m-1262 -2213 l87 -57 -662 -5 -662 -5 -5 -825 c-5 -752 -6 -827 -22 -850 -9
-14 -37 -63 -62 -110 l-46 -85 0 935 1 935 -2173 0 -2173 0 4 -1385 c2 -762 5
-1388 8 -1392 2 -5 957 -8 2122 -8 l2119 0 7 -37 c3 -21 9 -48 12 -60 l5 -23
-2767 0 -2768 0 -104 58 -103 57 657 3 c361 1 660 5 664 10 4 4 9 630 10 1392
l2 1385 -392 3 -392 2 41 60 41 60 367 2 c202 2 1656 2 3232 0 l2864 -2 88
-58z m-10384 -2 l-22 -60 -308 0 -308 0 0 60 0 60 330 0 329 0 -21 -60z
m14232 0 l0 -60 -1543 0 -1542 0 -89 60 -89 60 1632 0 1631 0 0 -60z m-7769
-1112 c202 -458 371 -831 376 -829 4 2 179 376 387 832 209 456 382 829 385
829 5 0 413 -2301 411 -2323 0 -4 -75 -6 -167 -5 l-167 3 -67 420 c-37 231
-84 525 -105 653 -20 128 -40 229 -44 225 -4 -4 -148 -320 -321 -700 -173
-381 -316 -693 -319 -693 -3 0 -145 315 -315 701 -217 491 -312 695 -317 682
-4 -10 -57 -305 -119 -655 l-113 -638 -168 0 c-119 0 -168 3 -168 11 0 7 101
529 225 1161 124 632 225 1154 225 1160 0 6 3 9 6 5 4 -3 172 -381 375 -839z
m-6463 -1798 l21 -60 -330 0 -329 0 0 60 0 60 309 0 309 0 20 -60z m2517 0
l90 -60 -632 0 c-500 0 -633 3 -634 13 0 6 -4 33 -8 60 l-8 47 551 0 551 -1
90 -59z m9891 43 c-4 -10 -14 -37 -24 -60 l-17 -43 -1346 0 -1346 0 -7 38 c-3
20 -6 47 -6 60 l0 22 1376 0 c1306 0 1376 -1 1370 -17z m1824 -43 l0 -60 -506
0 -506 0 5 23 c3 12 9 39 12 60 l7 37 494 0 494 0 0 -60z"/>
<path d="M9406 14044 c-216 -39 -627 -209 -932 -384 -175 -101 -477 -309 -634
-436 -156 -127 -462 -426 -576 -564 -99 -118 -365 -483 -441 -604 -77 -122
-221 -409 -263 -524 l-30 -83 55 -75 c40 -54 69 -82 106 -102 90 -48 133 -85
147 -127 14 -44 61 -355 87 -575 23 -204 43 -351 48 -356 2 -2 57 37 123 87
65 50 189 140 274 200 204 142 539 403 775 603 346 292 666 633 967 1031 96
126 322 459 399 586 132 219 274 539 330 744 29 104 35 287 15 405 -24 135
-39 161 -101 177 -65 17 -249 15 -349 -3z m328 -95 c10 -10 34 -183 26 -192
-3 -4 -197 -6 -431 -5 l-424 3 70 34 c97 47 373 137 475 155 81 14 272 18 284
5z m-1010 -2121 c-10 -13 -34 -40 -53 -60 l-35 -38 -933 0 -933 0 30 60 30 60
957 0 956 0 -19 -22z"/>
<path d="M6387 10988 c-2 -18 -14 -94 -25 -168 -21 -132 -35 -344 -48 -725
-11 -341 39 -813 117 -1105 42 -155 153 -469 205 -579 46 -98 179 -299 190
-288 2 2 -2 39 -11 83 -8 43 -21 133 -30 199 -28 211 -85 567 -145 900 -56
313 -60 337 -80 469 -19 132 -37 271 -66 506 -8 69 -21 179 -29 245 -8 66 -24
201 -35 300 -21 179 -33 227 -43 163z m218 -2090 c3 -24 9 -51 12 -61 10 -36
-29 -14 -42 23 -28 82 -28 80 -2 80 22 0 26 -6 32 -42z"/>
</g>
</svg>
